<?xml version="1.0" encoding="UTF-8"?>
<svg xmlns="http://www.w3.org/2000/svg" xmlns:xlink="http://www.w3.org/1999/xlink" width="54pt" height="54pt" viewBox="0 0 54 54" version="1.1">
<g id="surface1">
<rect x="0" y="0" width="54" height="54" stroke="none" />
<path fill="black" stroke="none" d="M 31.710938 37.457031 L 31.710938 36.304688 L 32.859375 36.304688 L 32.859375 35.15625 L 39.523438 35.15625 L 39.523438 36.304688 L 40.441406 36.304688 L 40.441406 37.457031 L 41.589844 37.457031 L 41.589844 40.671875 L 40.441406 40.671875 L 40.441406 41.820312 L 39.523438 41.820312 L 39.523438 42.96875 L 38.375 42.96875 L 38.375 44.121094 L 37.226562 44.121094 L 37.226562 47.566406 L 35.15625 47.566406 L 35.15625 43.199219 L 36.304688 43.199219 L 36.304688 42.050781 L 37.457031 42.050781 L 37.457031 40.902344 L 38.605469 40.902344 L 38.605469 39.753906 L 39.753906 39.753906 L 39.753906 38.375 L 38.605469 38.375 L 38.605469 37.226562 L 33.777344 37.226562 L 33.777344 38.375 L 32.628906 38.375 L 32.628906 40.671875 L 30.5625 40.671875 L 30.5625 37.457031 Z M 28.722656 37.226562 L 24.128906 37.226562 L 24.128906 48.945312 L 28.722656 48.945312 L 28.722656 51.011719 L 22.289062 51.011719 L 22.289062 35.15625 L 28.722656 35.15625 Z M 43.660156 37.226562 L 48.253906 37.226562 L 48.253906 48.945312 L 43.660156 48.945312 L 43.660156 51.011719 L 50.09375 51.011719 L 50.09375 35.15625 L 43.660156 35.15625 Z M 35.15625 48.945312 L 37.226562 48.945312 L 37.226562 51.011719 L 35.15625 51.011719 Z M 35.15625 48.945312 "/>
</g>
</svg>
