<?xml version="1.0" standalone="no"?>
<!DOCTYPE svg PUBLIC "-//W3C//DTD SVG 20010904//EN"
 "http://www.w3.org/TR/2001/REC-SVG-20010904/DTD/svg10.dtd">
<svg version="1.0" xmlns="http://www.w3.org/2000/svg"
 width="200.000000pt" height="200.000000pt" viewBox="0 0 200.000000 200.000000"
 preserveAspectRatio="xMidYMid meet">

<g transform="translate(0.000000,200.000000) scale(0.100000,-0.100000)"
fill="#000000" stroke="none">
<path d="M1060 1281 l-35 -7 45 -22 c25 -12 36 -19 25 -16 -59 20 -164 44
-192 44 -47 0 -66 -24 -58 -74 14 -86 73 -172 159 -228 48 -32 42 -36 -13 -9
-62 32 -135 120 -155 187 -10 33 -20 65 -22 73 -3 11 -20 12 -82 6 -202 -19
-395 -102 -610 -262 -40 -30 -71 -57 -68 -60 2 -3 20 0 38 6 173 56 387 16
484 -91 18 -21 36 -38 39 -38 3 0 5 29 5 65 l0 65 79 0 79 0 37 -66 38 -67 36
67 36 66 83 0 82 0 0 -130 c0 -72 4 -130 9 -130 5 0 20 13 33 29 44 52 69 61
189 71 63 5 117 10 121 10 4 0 3 11 -4 25 -12 28 2 55 30 55 21 0 326 67 388
85 58 17 74 32 97 92 15 38 15 44 1 58 -22 21 -31 19 -43 -12 l-11 -28 5 31
c5 28 3 31 -47 52 -64 26 -261 85 -354 107 -152 35 -380 59 -444 46z m-22
-127 c35 -27 41 -37 16 -27 -14 5 -15 3 -4 -16 11 -21 10 -22 -10 -11 -29 16
-35 7 -10 -15 20 -19 28 -41 10 -30 -14 9 -13 -8 2 -23 6 -6 9 -14 7 -17 -3
-2 -28 16 -57 41 -57 50 -107 126 -98 149 5 13 13 12 58 -6 29 -11 68 -32 86
-45z m486 -21 c88 -20 67 -37 -39 -31 -58 3 -79 8 -97 24 -13 12 -30 24 -38
28 -27 11 104 -4 174 -21z m-24 -210 c-77 -27 -120 -60 -120 -91 0 -21 -2 -24
-10 -12 -16 25 -11 49 14 65 28 19 125 54 146 54 8 0 -5 -8 -30 -16z"/>
<path d="M780 642 l0 -102 75 0 75 0 0 102 0 103 -35 -53 c-20 -28 -38 -52
-40 -52 -2 0 -20 24 -40 52 l-35 53 0 -103z"/>
</g>
</svg>
