<svg width="400" height="500" viewBox="0 0 400 500" xmlns="http://www.w3.org/2000/svg"><title>  Group</title><desc>  Created with Sketch.</desc><g fill="none"><path d="M200 0C89.5 0 0 89.5 0 200L100 200C100 144.8 144.8 100 200 100L200 0 200 0Z" fill="#D6FF00"/><path d="M400 200C400 89.5 310.5 0 200 0L200 100C255.2 100 300 144.8 300 200L400 200 400 200Z" fill="#34E27A"/><path d="M200 400C310.5 400 400 310.5 400 200L300 200C300 255.2 255.2 300 200 300L200 400 200 400Z" fill="#00B9F1"/><path d="M100 400L100 200 0 200 0 500 200 500 200 400 100 400Z" fill="#FFF"/></g></svg>