<?xml version="1.0" encoding="UTF-8"?>
<svg xmlns="http://www.w3.org/2000/svg" xmlns:xlink="http://www.w3.org/1999/xlink" width="47pt" height="54pt" viewBox="0 0 47 54" version="1.1">
<g id="surface1">
<path d="M 23.523438 0 L 0 13.5 L 0 40.5 L 23.578125 54 L 46.996094 40.554688 L 46.996094 13.445312 Z M 5.207031 37.808594 L 5.207031 16.519531 L 23.515625 5.808594 L 41.894531 16.234375 L 41.894531 37.636719 L 23.585938 48.40625 Z M 14.597656 32.527344 L 14.597656 40.105469 L 7.953125 36.496094 L 7.953125 28.679688 Z M 15.796875 20.828125 L 21.664062 17.425781 L 15.019531 13.527344 L 9.113281 17.003906 Z M 23.734375 18.472656 L 17.789062 21.96875 L 23.839844 25.429688 L 29.734375 21.992188 Z M 22.621094 27.445312 L 16.667969 24.039062 L 16.667969 31.082031 L 22.621094 34.316406 Z M 31.363281 21.042969 L 37.886719 17.238281 L 31.867188 13.707031 L 25.332031 17.554688 Z M 29.796875 12.660156 L 23.152344 8.761719 L 16.617188 12.609375 L 23.261719 16.453125 Z M 7.953125 19.050781 L 7.953125 26.136719 L 14.597656 29.746094 L 14.597656 22.855469 Z M 32.328125 32.800781 L 32.328125 40.402344 L 39.042969 36.441406 L 39.042969 28.707031 Z M 32.328125 23.207031 L 32.328125 30.03125 L 39.042969 26.082031 L 39.042969 19.289062 Z M 24.957031 27.503906 L 24.957031 34.347656 L 30.910156 30.847656 L 30.910156 24.035156 Z M 24.957031 36.980469 L 24.957031 44.710938 L 30.910156 41.207031 L 30.910156 33.679688 Z M 22.621094 36.957031 L 16.667969 33.628906 L 16.667969 41.441406 L 22.621094 44.675781 Z M 22.621094 36.957031 "/>
</g>
</svg>
